<svg width="138" height="36" viewBox="0 0 138 36" fill="none" xmlns="http://www.w3.org/2000/svg">
<path fill-rule="evenodd" clip-rule="evenodd" d="M61.8956 23.8943V5.56009C61.8956 2.49178 59.4037 0 56.3353 0H6.34917C3.28093 0 0.789062 2.49178 0.789062 5.56009V23.8943C0.789062 26.9626 3.28093 29.4544 6.34917 29.4544H42.5187L52.3195 36L50.3483 29.4544H56.3361C59.4045 29.4544 61.8964 26.9626 61.8964 23.8943H61.8956ZM11.3422 18.4292C11.6298 18.9374 12.0146 19.3237 12.4965 19.588C12.9783 19.8524 13.5138 19.9844 14.1027 19.9842C14.6916 19.9842 15.2305 19.8437 15.7193 19.5627C16.2082 19.2817 16.5946 18.8837 16.8786 18.3687C17.163 17.8539 17.3052 17.2653 17.3055 16.6027V8.37438C17.3055 8.2541 17.3422 8.15708 17.4158 8.08333C17.4893 8.00959 17.5864 7.97277 17.7069 7.97288H19.7147C19.8419 7.97288 19.9422 8.01131 20.0157 8.08817C20.0521 8.12625 20.0805 8.17114 20.0995 8.22026C20.1185 8.26938 20.1275 8.32175 20.1262 8.37438V16.5926C20.1262 17.9105 19.8568 19.0127 19.318 19.8991C18.7793 20.7855 18.0565 21.4408 17.1498 21.865C16.2429 22.2898 15.2274 22.5022 14.1032 22.5022C12.9856 22.5022 11.9716 22.2849 11.0613 21.8501C10.151 21.4154 9.42651 20.7534 8.88775 19.8639C8.34899 18.9743 8.07967 17.8738 8.07978 16.5624V8.36422C8.07764 8.26298 8.11329 8.16457 8.17978 8.08817C8.21033 8.05137 8.24876 8.02191 8.29223 8.00195C8.3357 7.982 8.38311 7.97206 8.43093 7.97288H10.539C10.6724 7.97288 10.7677 8.0062 10.8252 8.07284C10.8826 8.13948 10.9111 8.23644 10.9107 8.36372V16.6022C10.9107 17.3119 11.0545 17.9208 11.3422 18.4292ZM22.0149 19.8489C22.015 19.9109 22.0268 19.9722 22.0497 20.0298C22.0806 20.104 22.1194 20.1747 22.1653 20.2407C22.6196 20.9441 23.2243 21.4969 23.9794 21.899C24.7345 22.3011 25.5933 22.5022 26.5557 22.5022C27.3061 22.5043 28.0499 22.361 28.7461 22.08C29.4444 21.7986 30.0124 21.3748 30.4501 20.8087C30.8878 20.2425 31.1067 19.5607 31.1067 18.7634C31.1071 17.9123 30.8397 17.1484 30.3045 16.4719C29.7693 15.7954 28.9538 15.2929 27.858 14.9643C27.718 14.9177 27.5877 14.8776 27.4671 14.844C27.3465 14.8104 27.2362 14.7802 27.1364 14.7534C26.6016 14.6057 26.2039 14.4817 25.9433 14.3816C25.6826 14.281 25.4755 14.1519 25.3218 13.9945C25.1681 13.8372 25.0913 13.6278 25.0913 13.3665C25.0912 13.0249 25.2332 12.7469 25.5174 12.5323C25.8015 12.3177 26.1974 12.2104 26.7052 12.2104C27.1867 12.2103 27.5911 12.2958 27.9183 12.4667C28.2455 12.6377 28.5561 12.894 28.8503 13.2356C28.9571 13.3628 29.0573 13.4264 29.1508 13.4264C29.2247 13.4263 29.3116 13.3862 29.4114 13.306L30.5543 12.3611C30.6812 12.2607 30.7447 12.1636 30.7447 12.0698C30.7447 11.9889 30.6948 11.8817 30.5949 11.7483C30.1672 11.2058 29.6275 10.7469 28.9757 10.3716C28.324 9.9963 27.5439 9.80865 26.6354 9.80865C25.7936 9.80865 25.0503 9.97783 24.4053 10.3162C23.7603 10.6547 23.2642 11.0918 22.9168 11.6276C22.5694 12.1634 22.3957 12.7094 22.3957 13.2656C22.3956 13.9559 22.5275 14.5439 22.7914 15.0295C23.0555 15.515 23.4565 15.9287 23.9944 16.2704C24.5323 16.6121 25.239 16.9169 26.1145 17.1849C26.4957 17.299 26.7196 17.3627 26.7862 17.3761C27.2205 17.5037 27.5412 17.6093 27.7483 17.6931C27.9556 17.7766 28.1194 17.8972 28.2396 18.0548C28.3599 18.2124 28.42 18.4319 28.42 18.7132C28.4203 18.9877 28.3167 19.2339 28.1093 19.4517C27.9019 19.6695 27.6363 19.837 27.3123 19.9544C26.9992 20.0696 26.6685 20.1291 26.335 20.1301C25.8007 20.1297 25.3513 20.0024 24.987 19.7482C24.6226 19.4939 24.2867 19.1491 23.9794 18.7137C23.8724 18.5663 23.7556 18.4926 23.6287 18.4926C23.5509 18.4917 23.4756 18.5204 23.418 18.5729L22.1851 19.5072C22.0716 19.6146 22.0149 19.7285 22.0149 19.8489ZM42.3645 18.8169C42.4644 18.8169 42.5413 18.857 42.5952 18.9372L43.5773 20.1421C43.6573 20.2421 43.6973 20.3392 43.6974 20.4333C43.6974 20.5334 43.6475 20.6304 43.5476 20.7246C42.8323 21.354 42.1189 21.8076 41.4073 22.0855C40.6956 22.3633 39.932 22.5022 39.1164 22.5022C38.0134 22.5022 36.9774 22.2178 36.0083 21.6489C35.0393 21.08 34.2656 20.3119 33.6874 19.3446C33.1091 18.3778 32.8201 17.3286 32.8202 16.1969C32.8202 15.0457 33.0892 13.9864 33.6273 13.019C34.1654 12.0516 34.9088 11.2835 35.8577 10.7146C36.8068 10.1458 37.8696 9.86134 39.046 9.86112C40.0015 9.86112 40.9455 10.0938 41.878 10.5592C42.8104 11.0247 43.5824 11.7341 44.1939 12.6876C44.8057 13.6415 45.1116 14.8112 45.1116 16.1969C45.1116 16.5114 45.0748 16.7392 45.0012 16.8804C44.9277 17.0215 44.8291 17.1062 44.7054 17.1346C44.5816 17.1647 44.3895 17.1797 44.1292 17.1796H35.5072C35.6403 17.7555 35.8809 18.2611 36.2289 18.6965C36.5718 19.128 37.0091 19.4749 37.507 19.7105C38.0117 19.9514 38.5548 20.0718 39.1364 20.0718C39.5843 20.0718 39.9719 20.0267 40.2992 19.9364C40.6266 19.8462 40.8956 19.7391 41.1063 19.6152C41.3517 19.4675 41.5878 19.3048 41.8132 19.1281L42.1038 18.9072C42.1907 18.8471 42.2776 18.817 42.3645 18.8169ZM37.5824 12.5616C37.1225 12.7948 36.7147 13.1194 36.384 13.5154C36.0485 13.9134 35.7886 14.3694 35.617 14.861H42.4847C42.1969 14.0645 41.7507 13.4236 41.1459 12.9383C40.5412 12.453 39.8476 12.2103 39.0653 12.2102C38.5501 12.2074 38.0417 12.3279 37.5824 12.5616ZM49.1366 9.96694H47.7492C47.4949 9.96694 47.3675 10.1045 47.3672 10.3796V21.8729C47.3672 22.1409 47.4945 22.2749 47.7492 22.2749H49.7296C49.9976 22.275 50.1283 22.141 50.1219 21.8729V15.1312C50.1217 14.5216 50.2374 14.0092 50.4687 13.5939C50.7 13.1787 50.9981 12.8706 51.3631 12.6698C51.7212 12.4706 52.1245 12.3667 52.5344 12.3682C52.95 12.3683 53.3319 12.442 53.6802 12.5892C54.0397 12.7427 54.3833 12.9312 54.7059 13.1519C54.8198 13.2322 54.9202 13.2723 55.0073 13.2723C55.1079 13.2724 55.1951 13.2189 55.2689 13.1118L56.1735 11.8357C56.2472 11.7419 56.2841 11.6514 56.2841 11.5643C56.284 11.4438 56.2103 11.3132 56.063 11.1727C55.6948 10.8577 55.229 10.5546 54.6657 10.2632C54.1024 9.97183 53.4925 9.82615 52.836 9.82615C52.226 9.82637 51.6681 9.97039 51.1621 10.2582C50.6562 10.546 50.2424 10.9512 49.9207 11.4739L49.7296 10.419C49.697 10.2248 49.6318 10.1009 49.5339 10.0473C49.436 9.99374 49.3035 9.96694 49.1366 9.96694Z" fill="white"/>
<path d="M65.4438 7.97266H75.7585C76.0059 7.97266 76.1298 8.09971 76.13 8.35382V10.1689C76.13 10.4296 76.0062 10.56 75.7585 10.5598H71.9619V21.8936C71.9619 22.1477 71.8348 22.2747 71.5804 22.2747H69.5117C69.257 22.2747 69.1298 22.1477 69.13 21.8936V10.5602H65.4438C65.1896 10.5602 65.0625 10.4299 65.0625 10.1692V8.35415C65.0625 8.10004 65.1896 7.97288 65.4438 7.97266Z" fill="white"/>
<path d="M85.3204 18.8184C85.4204 18.8184 85.4974 18.8585 85.5515 18.9388L86.5349 20.1437C86.6151 20.2437 86.6553 20.3408 86.6553 20.4349C86.6553 20.5349 86.6052 20.632 86.5052 20.7261C85.789 21.3554 85.0745 21.809 84.3616 22.0868C83.6488 22.3647 82.8839 22.5032 82.067 22.5024C80.9624 22.5024 79.9249 22.218 78.9543 21.6491C77.9837 21.0802 77.209 20.3121 76.6302 19.3449C76.0511 18.378 75.7616 17.3288 75.7617 16.1971C75.7617 15.0459 76.0311 13.9866 76.57 13.0192C77.1088 12.0518 77.8534 11.2837 78.8036 10.715C79.7541 10.146 80.8184 9.86144 81.9965 9.86133C82.9533 9.86133 83.8986 10.094 84.8325 10.5595C85.7664 11.0249 86.5395 11.7343 87.1518 12.6878C87.7645 13.6417 88.0707 14.8114 88.0706 16.1971C88.0706 16.5116 88.0338 16.7394 87.9603 16.8806C87.8867 17.0217 87.7879 17.1071 87.6639 17.1366C87.5399 17.167 87.3475 17.182 87.0866 17.1818H78.4522C78.5856 17.7576 78.8265 18.2632 79.175 18.6987C79.5185 19.1302 79.9565 19.4771 80.4551 19.7128C80.9603 19.9538 81.5042 20.0742 82.0868 20.074C82.5353 20.074 82.9235 20.0289 83.2513 19.9386C83.5791 19.8484 83.8485 19.7413 84.0594 19.6174C84.3052 19.4698 84.5416 19.3071 84.7674 19.1303L85.0586 18.9096C85.1461 18.8488 85.2334 18.8184 85.3204 18.8184ZM80.5315 12.5631C80.0709 12.7964 79.6625 13.1209 79.3313 13.517C78.9954 13.9149 78.7351 14.371 78.5632 14.8626H85.4406C85.1528 14.0659 84.7061 13.4247 84.1006 12.939C83.4951 12.4534 82.8006 12.2107 82.017 12.2109C81.5009 12.2081 80.9916 12.3286 80.5315 12.5623V12.5631Z" fill="white"/>
<path d="M88.9254 20.0293C88.9027 19.9718 88.8909 19.9104 88.8906 19.8485C88.8906 19.728 88.9474 19.6141 89.0609 19.5068L90.2937 18.5724C90.3513 18.5199 90.4266 18.4912 90.5044 18.4921C90.6312 18.4921 90.7481 18.5658 90.855 18.7132C91.1624 19.1486 91.4982 19.4934 91.8625 19.7477C92.2269 20.002 92.6762 20.1293 93.2105 20.1296C93.544 20.1286 93.8747 20.0692 94.1877 19.9539C94.5118 19.8367 94.7775 19.6691 94.9847 19.4512C95.192 19.2333 95.2955 18.9871 95.2954 18.7127C95.2954 18.4314 95.2353 18.212 95.115 18.0545C94.9948 17.897 94.831 17.7763 94.6238 17.6926C94.4165 17.6088 94.0958 17.5031 93.6617 17.3755C93.5951 17.3622 93.3712 17.2985 92.99 17.1845C92.1144 16.9163 91.4078 16.6114 90.87 16.2698C90.3323 15.9282 89.9313 15.5146 89.6671 15.0289C89.4032 14.5437 89.2712 13.9559 89.2712 13.2656C89.2712 12.7094 89.4449 12.1634 89.7923 11.6276C90.1397 11.0918 90.6358 10.6546 91.2807 10.3162C91.9257 9.97778 92.669 9.80859 93.5107 9.80859C94.4193 9.80859 95.1993 9.99625 95.8509 10.3716C96.5025 10.7469 97.0422 11.2058 97.47 11.7483C97.5699 11.8817 97.6198 11.9889 97.6198 12.0698C97.6198 12.1636 97.5563 12.2607 97.4294 12.3613L96.2866 13.306C96.1868 13.3862 96.0999 13.4264 96.026 13.4265C95.9325 13.4265 95.8323 13.3628 95.7255 13.2356C95.4313 12.8941 95.1207 12.6378 94.7935 12.4667C94.4663 12.2956 94.0623 12.2102 93.5815 12.2104C93.0737 12.2104 92.6778 12.3177 92.3937 12.5323C92.1097 12.7469 91.9677 13.025 91.9677 13.3666C91.9677 13.6279 92.0445 13.8372 92.1982 13.9946C92.3519 14.152 92.559 14.281 92.8196 14.3817C93.0802 14.4825 93.4779 14.6065 94.0127 14.7536C94.1125 14.7803 94.2227 14.8105 94.3433 14.8441C94.4639 14.8776 94.5942 14.9178 94.7343 14.9645C95.83 15.2929 96.6454 15.7954 97.1806 16.4722C97.7158 17.149 97.9831 17.9126 97.9824 18.7633C97.9824 19.5606 97.7636 20.2424 97.3259 20.8086C96.8882 21.3747 96.3202 21.7985 95.6219 22.08C94.9258 22.3609 94.1821 22.5043 93.4317 22.5021C92.4694 22.5021 91.6106 22.3011 90.8555 21.8991C90.1004 21.4971 89.4958 20.9443 89.0416 20.2407C88.9955 20.1746 88.9565 20.1038 88.9254 20.0293Z" fill="white"/>
<path d="M104.591 10.0627C104.866 10.0627 105.003 10.2031 105.003 10.4838V12.0781C105.003 12.2112 104.96 12.3148 104.873 12.3889C104.786 12.4629 104.678 12.4996 104.551 12.4991H103.163V18.495C103.163 18.9295 103.24 19.2755 103.394 19.5329C103.548 19.7902 103.82 19.9289 104.209 19.949L104.521 19.969C104.742 19.9824 104.879 20.041 104.933 20.1446C104.988 20.2549 105.016 20.377 105.014 20.5004V21.864C105.014 22.185 104.766 22.3454 104.269 22.3453C103.519 22.3453 102.85 22.2016 102.263 21.9143C101.677 21.627 101.219 21.2142 100.891 20.676C100.562 20.1377 100.398 19.5077 100.398 18.7858V12.4991H99.2818C99.1743 12.4991 99.0705 12.4599 98.9901 12.3889C98.903 12.3155 98.8594 12.2119 98.8594 12.0781V10.5133C98.8594 10.3662 98.9013 10.2542 98.9851 10.1774C99.0652 10.102 99.1716 10.0606 99.2818 10.062H100.398V8.04747C100.398 7.90697 100.425 7.8051 100.478 7.74167C100.532 7.67825 100.636 7.62648 100.79 7.58603L102.761 7.01439C102.797 7.00396 102.834 6.99721 102.872 6.99425C102.915 6.99295 102.958 7.00347 102.996 7.0247C103.034 7.04593 103.066 7.07706 103.088 7.11477C103.138 7.19489 103.163 7.29849 103.163 7.42556V10.0624L104.591 10.0627Z" fill="white"/>
<path d="M107.639 5.57812H109.307C109.674 5.57812 109.857 5.78197 109.857 6.18965V7.8744C109.857 8.07541 109.812 8.21587 109.722 8.29579C109.632 8.37571 109.494 8.41578 109.307 8.416H107.639C107.239 8.416 107.039 8.23547 107.039 7.8744V6.18965C107.039 5.78208 107.239 5.57824 107.639 5.57812ZM107.229 10.0808C107.303 10.0138 107.399 9.97802 107.499 9.98087H109.537C109.65 9.98087 109.74 10.0159 109.807 10.0861C109.873 10.1564 109.906 10.2526 109.906 10.3721V21.8846C109.906 22.1452 109.783 22.2755 109.537 22.2755H107.499C107.246 22.2755 107.119 22.1452 107.119 21.8846V10.3716C107.119 10.2446 107.156 10.1477 107.229 10.0808H107.229Z" fill="white"/>
<path d="M114.68 22.1646C114.565 22.2395 114.431 22.2781 114.294 22.275H112.52C112.246 22.275 112.109 22.1379 112.109 21.8636V10.3807C112.109 10.1063 112.246 9.96909 112.52 9.96909H113.824C113.957 9.96911 114.086 10.0192 114.185 10.1096C114.29 10.2014 114.364 10.3244 114.395 10.4609L114.555 11.8462C115.016 11.1838 115.583 10.6904 116.254 10.3659C116.918 10.0431 117.647 9.87652 118.384 9.87893C119.126 9.87893 119.849 10.0663 120.554 10.441C121.259 10.8158 121.841 11.3945 122.298 12.1773C122.756 12.9604 122.984 13.9274 122.985 15.0783V21.8736C122.985 22.1412 122.858 22.275 122.604 22.275H120.668C120.395 22.275 120.258 22.1412 120.257 21.8736V15.1686C120.257 14.707 120.141 14.267 119.907 13.8488C119.678 13.4363 119.347 13.0904 118.944 12.8451C118.537 12.5939 118.082 12.4683 117.582 12.4684C117.147 12.4684 116.718 12.5839 116.293 12.8147C115.869 13.0456 115.522 13.3769 115.251 13.8086C114.981 14.2403 114.845 14.7372 114.845 15.2991V21.8636C114.845 21.9908 114.79 22.0911 114.68 22.1646Z" fill="white"/>
<path d="M136.351 23.4429C135.819 24.4238 135.085 25.1622 134.149 25.658C133.213 26.1538 132.136 26.4015 130.919 26.4012C130.116 26.4012 129.322 26.2656 128.536 25.9944C127.75 25.7232 127.076 25.3499 126.514 24.8744C126.4 24.7805 126.343 24.6866 126.344 24.5929C126.344 24.5262 126.384 24.4324 126.464 24.3117L127.267 23.1463C127.353 23.0129 127.467 22.9462 127.608 22.9462C127.715 22.9462 127.829 22.9864 127.949 23.0668C128.792 23.6561 129.848 23.9508 131.119 23.9508C131.761 23.9508 132.336 23.8085 132.845 23.524C133.345 23.2471 133.757 22.8345 134.034 22.3336C134.318 21.8246 134.46 21.2452 134.46 20.5955V20.5555C133.911 21.1313 133.338 21.5616 132.74 21.8462C132.141 22.1309 131.444 22.2732 130.647 22.273C129.577 22.273 128.577 22.0117 127.648 21.4891C126.718 20.9665 125.974 20.2348 125.416 19.294C124.857 18.3534 124.578 17.2902 124.578 16.1046C124.578 14.9861 124.857 13.9464 125.416 12.9856C125.974 12.0248 126.72 11.258 127.653 10.6851C128.586 10.1125 129.584 9.82617 130.648 9.82617C132.186 9.82617 133.5 10.4155 134.591 11.5941L134.761 10.4588C134.788 10.2782 134.835 10.1511 134.902 10.0774C134.969 10.0036 135.079 9.96672 135.233 9.96661H136.788C137.029 9.96661 137.149 10.1073 137.149 10.3887V19.8515C137.149 21.2646 136.883 22.4617 136.351 23.4429ZM134.074 14.2255C133.756 13.6428 133.32 13.179 132.765 12.8342C132.209 12.4894 131.588 12.317 130.899 12.3171C130.183 12.3171 129.55 12.4895 128.998 12.8342C128.446 13.1789 128.016 13.6444 127.708 14.2307C127.4 14.8168 127.247 15.4581 127.247 16.1546C127.247 16.8917 127.409 17.5481 127.733 18.1237C128.057 18.6993 128.502 19.1481 129.067 19.47C129.633 19.791 130.26 19.9515 130.949 19.9515C131.631 19.9515 132.246 19.7807 132.795 19.4392C133.343 19.0976 133.773 18.6338 134.084 18.0478C134.395 17.4618 134.55 16.8238 134.55 16.1338C134.55 15.4437 134.391 14.8076 134.074 14.2255Z" fill="white"/>
</svg>
